<?xml version="1.0" encoding="UTF-8"?>
<svg version="1.1" xmlns="http://www.w3.org/2000/svg" width="893" height="276">
<path d="M0 0 C294.69 0 589.38 0 893 0 C893 91.08 893 182.16 893 276 C598.31 276 303.62 276 0 276 C0 184.92 0 93.84 0 0 Z " fill="#FEFEFE" transform="translate(0,0)"/>
<path d="M0 0 C7.04118513 6.06662663 11.58498723 14.03406194 12.640625 23.30859375 C13.00991565 34.57195854 10.37731726 43.34813661 3.109375 52.0078125 C-3.82358703 59.26255758 -12.54827984 62.63561712 -22.4921875 63.1328125 C-32.07144715 62.9179506 -39.21081541 59.95220746 -46.7421875 53.9453125 C-55.50839046 44.76470722 -58.14600684 36.00620553 -58.015625 23.515625 C-57.33465406 14.62409009 -52.99645294 7.18801737 -46.7421875 0.9453125 C-32.13572391 -10.63379025 -15.02698827 -11.25846457 0 0 Z " fill="#3A2C22" transform="translate(454.7421875,137.0546875)"/>
<path d="M0 0 C5.80937935 5.68028203 8.09668252 12.21041948 8.34057617 20.24438477 C8.34010858 22.14345817 8.32360318 24.04257989 8.29296875 25.94140625 C8.28872391 26.94968979 8.28447906 27.95797333 8.28010559 28.99681091 C8.26344683 32.18565716 8.22581877 35.373848 8.1875 38.5625 C8.17243661 40.73762102 8.15875112 42.91275204 8.14648438 45.08789062 C8.11358548 50.39214693 8.06351575 55.69602662 8 61 C1.203125 60.203125 1.203125 60.203125 -2 57 C-5.64947608 57.45933061 -8.73808838 58.68502428 -12.125 60.0625 C-24.47377222 64.21936167 -39.17728639 63.43349263 -51 58 C-56.38101687 54.83282668 -60.03552685 49.89341944 -62 44 C-62.63583951 36.28653714 -62.9265776 30.18980262 -58 24 C-51.07210491 16.24376962 -41.11826649 13.4807141 -30.9921875 12.796875 C-22.80432667 12.67374927 -14.45389703 13.27305148 -7 17 C-6.49864363 10.85838443 -7.51549007 7.89714909 -11 3 C-13.30305165 1.10141725 -13.30305165 1.10141725 -16 0 C-17.2684375 -0.5878125 -17.2684375 -0.5878125 -18.5625 -1.1875 C-28.1573824 -3.4553813 -36.09979173 -1.85253881 -45 2 C-46.66538923 2.66985142 -48.33169182 3.33745185 -50 4 C-50.33 3.01 -50.66 2.02 -51 1 C-35.34753187 -9.94209922 -15.93135829 -12.48193473 0 0 Z " fill="#3A2C22" transform="translate(269,138)"/>
<path d="M0 0 C10.21827198 -0.29195063 19.42778441 3.00517781 27.41015625 9.42578125 C34.17985885 17.98746395 34.69455013 26.42736141 34.6328125 36.984375 C34.63139755 37.90670425 34.6299826 38.82903351 34.62852478 39.77931213 C34.62296131 42.70316923 34.61041567 45.6269476 34.59765625 48.55078125 C34.59263653 50.5423166 34.58807445 52.53385315 34.58398438 54.52539062 C34.57300387 59.38805081 34.55576464 64.25065272 34.53515625 69.11328125 C33.25640625 68.82453125 31.97765625 68.53578125 30.66015625 68.23828125 C29.94085937 68.07585937 29.2215625 67.9134375 28.48046875 67.74609375 C26.53515625 67.11328125 26.53515625 67.11328125 24.53515625 65.11328125 C21.57519608 65.26507408 19.07183322 65.8748654 16.36328125 67.078125 C5.70788005 71.72745378 -8.40885782 72.18554778 -19.39453125 68.08984375 C-26.71228999 64.63807076 -32.26185656 60.83396808 -35.77734375 53.30078125 C-37.2526112 46.4609049 -37.09956153 40.58269775 -33.89453125 34.25 C-28.77196935 26.59414929 -21.11299009 23.65602304 -12.37109375 21.7734375 C-0.92402935 19.83888362 9.0890364 20.89022132 19.53515625 26.11328125 C19.22157407 19.05768212 18.02846504 14.37370279 12.66015625 9.36328125 C4.80756596 4.74411049 -3.81011088 5.2432622 -12.40234375 7.42578125 C-15.3117971 8.23562909 -17.20772454 8.91183188 -19.59375 10.78125 C-20.21121094 11.22082031 -20.82867188 11.66039062 -21.46484375 12.11328125 C-22.45484375 11.78328125 -23.44484375 11.45328125 -24.46484375 11.11328125 C-22.58293338 5.88701208 -18.30959445 4.62041343 -13.55859375 2.375 C-8.86383789 0.46034578 -5.05405205 0.23227815 0 0 Z " fill="#EB6508" transform="translate(726.46484375,129.88671875)"/>
<path d="M0 0 C21.02474668 5.25618667 40.92079354 19.06890316 58 32 C59.08192424 32.80613322 60.16395632 33.61212173 61.24609375 34.41796875 C72.7791566 43.0815945 83.76309805 52.51379931 94.22265625 62.4453125 C96.91712824 65.01019036 96.91712824 65.01019036 99.74609375 67.0546875 C103.05256087 69.70605115 105.61668312 71.79931016 106.37353516 76.14453125 C106.76329154 81.46153844 106.46337543 86.69692564 106 92 C101.08284253 87.95700386 96.59183421 83.62817803 92.11767578 79.1003418 C88.90205921 75.8622192 85.5989858 72.80725203 82.125 69.8515625 C79.53601055 67.59571507 77.06086457 65.23079486 74.5625 62.875 C67.16271688 56.00334608 59.11494864 49.99386633 51 44 C50.36739258 43.53142578 49.73478516 43.06285156 49.08300781 42.58007812 C35.48194294 32.55211269 20.163634 21.387878 4 16 C4 41.74 4 67.48 4 94 C2.68 94 1.36 94 0 94 C0 62.98 0 31.96 0 0 Z " fill="#36281D" transform="translate(89,105)"/>
<path d="M0 0 C6.64492148 5.05564647 9.61837048 10.81221005 11 19 C11.08170868 20.59511805 11.1179254 22.19307985 11.11352539 23.7902832 C11.11341209 25.17114861 11.11341209 25.17114861 11.11329651 26.57991028 C11.10813522 27.5602977 11.10297394 28.54068512 11.09765625 29.55078125 C11.0962413 30.56472458 11.09482635 31.57866791 11.09336853 32.62333679 C11.08778328 35.85308821 11.07523345 39.08276962 11.0625 42.3125 C11.0574831 44.50585837 11.05292052 46.69921783 11.04882812 48.89257812 C11.03781867 54.26174561 11.02056414 59.63086095 11 65 C6.71 65 2.42 65 -2 65 C-2.01458252 63.68918457 -2.02916504 62.37836914 -2.04418945 61.02783203 C-2.10252455 56.12603606 -2.17975352 51.22468265 -2.26245117 46.32324219 C-2.29553574 44.2090579 -2.32361796 42.09478877 -2.34643555 39.98046875 C-2.38028608 36.92671841 -2.43261545 33.87373406 -2.48828125 30.8203125 C-2.49467117 29.88760529 -2.5010611 28.95489807 -2.50764465 27.993927 C-2.67728742 20.27908668 -3.83646987 11.08558909 -9 5 C-14.24149868 1.95993076 -18.99188722 1.1095468 -25 2 C-31.76200904 3.99183046 -37.98069442 6.98069442 -43 12 C-43.33116738 14.34409571 -43.33116738 14.34409571 -43.31884766 17.09228516 C-43.33871735 18.15323395 -43.35858704 19.21418274 -43.37905884 20.30728149 C-43.39638565 22.03076309 -43.39638565 22.03076309 -43.4140625 23.7890625 C-43.43342865 24.96262299 -43.4527948 26.13618347 -43.4727478 27.3453064 C-43.53267664 31.10512961 -43.57898246 34.86498323 -43.625 38.625 C-43.6631675 41.16928442 -43.70221849 43.71355575 -43.7421875 46.2578125 C-43.83838921 52.50510241 -43.92237112 58.75245281 -44 65 C-48.29 65 -52.58 65 -57 65 C-57 42.89 -57 20.78 -57 -2 C-50.36619917 -0.89436653 -49.51892066 -0.31351518 -45 4 C-44.01 5.485 -44.01 5.485 -43 7 C-42.53851563 6.61328125 -42.07703125 6.2265625 -41.6015625 5.828125 C-29.64639889 -3.71710444 -13.93823516 -8.07325376 0 0 Z " fill="#35271C" transform="translate(376,134)"/>
<path d="M0 0 C4.29 0 8.58 0 13 0 C13.01458252 1.31081543 13.02916504 2.62163086 13.04418945 3.97216797 C13.10252455 8.87396394 13.17975352 13.77531735 13.26245117 18.67675781 C13.29553574 20.7909421 13.32361796 22.90521123 13.34643555 25.01953125 C13.38028608 28.07328159 13.43261545 31.12626594 13.48828125 34.1796875 C13.49467117 35.11239471 13.5010611 36.04510193 13.50764465 37.006073 C13.68945933 45.27445523 14.80633484 53.99402166 21 60 C26.18598266 63.23402037 32.12857107 62.75906871 38 62 C42.28565363 60.42941942 46.13762411 58.42356716 50 56 C50.70151184 55.57925705 51.40302368 55.1585141 52.12579346 54.72502136 C54.20715344 53.14058035 54.20715344 53.14058035 54.51898193 50.62715149 C54.5323056 49.22483528 54.5323056 49.22483528 54.54589844 47.79418945 C54.56561707 46.73331619 54.58533569 45.67244293 54.60565186 44.579422 C54.60688049 43.43559555 54.60810913 42.2917691 54.609375 41.11328125 C54.62591125 39.94113571 54.64244751 38.76899017 54.65948486 37.56132507 C54.70813168 33.81166431 54.7293737 30.06240957 54.75 26.3125 C54.77814558 23.77276585 54.80807099 21.23305074 54.83984375 18.69335938 C54.91389569 12.46227298 54.96336877 6.23141423 55 0 C59.29 0 63.58 0 68 0 C68 22.11 68 44.22 68 67 C61.48947394 65.69789479 57.8049269 63.36967495 54 58 C53.31035156 58.47050781 52.62070312 58.94101563 51.91015625 59.42578125 C40.95387975 66.68487803 32.35794386 69.48105135 19 68 C12.51194098 66.16086516 8.19393146 62.86330886 4.25390625 57.453125 C0.46880923 50.04801307 -0.42597986 43.30307624 -0.29296875 35.05859375 C-0.28872391 34.05031021 -0.28447906 33.04202667 -0.28010559 32.00318909 C-0.26344683 28.81434284 -0.22581877 25.626152 -0.1875 22.4375 C-0.17243661 20.26237898 -0.15875112 18.08724796 -0.14648438 15.91210938 C-0.1135853 10.60782423 -0.06189243 5.30402285 0 0 Z " fill="#EB6101" transform="translate(579,132)"/>
<path d="M0 0 C0.598125 0.53625 1.19625 1.0725 1.8125 1.625 C1.4825 2.615 1.1525 3.605 0.8125 4.625 C-4.00790521 2.80477109 -8.53512789 0.46713878 -13.10351562 -1.89648438 C-24.57273598 -7.73648739 -41.85783407 -7.48385546 -54.125 -3.9375 C-63.90436971 0.18089528 -70.98712171 8.27453767 -75.1484375 17.83203125 C-79.62364356 30.86760853 -78.93874929 48.17879798 -73.1875 60.625 C-68.17853018 70.13771214 -62.05055923 75.38328006 -51.93359375 78.86328125 C-37.58851106 82.84235824 -21.23638949 81.65583108 -8.125 74.5625 C-6.47630544 73.5881587 -4.83015204 72.60949429 -3.1875 71.625 C-1.86096834 70.94490001 -0.53000497 70.27299894 0.8125 69.625 C1.1425 70.945 1.4725 72.265 1.8125 73.625 C-10.56751428 82.40515197 -21.56539003 86.02431872 -36.75 86 C-37.80123047 85.99838867 -38.85246094 85.99677734 -39.93554688 85.99511719 C-51.81647928 85.80981824 -62.80271572 83.68279083 -73.1875 77.625 C-73.1875 76.965 -73.1875 76.305 -73.1875 75.625 C-74.0228125 75.25375 -74.0228125 75.25375 -74.875 74.875 C-84.27424837 69.79432521 -89.00095386 60.49512241 -92.1875 50.625 C-95.65724734 37.04672208 -93.10895626 23.5633224 -86.5625 11.4375 C-78.56922826 -1.02318928 -66.91039758 -6.64136461 -52.8828125 -9.81640625 C-34.10226569 -13.70860653 -15.58400129 -11.61160881 0 0 Z " fill="#EB6407" transform="translate(569.1875,114.375)"/>
<path d="M0 0 C0.09893453 4.07496103 0.17149694 8.14945656 0.21972656 12.2253418 C0.23983275 13.61153338 0.26712245 14.99764025 0.30175781 16.38354492 C0.35031225 18.37641906 0.37083972 20.36991389 0.390625 22.36328125 C0.41157227 23.56251221 0.43251953 24.76174316 0.45410156 25.99731445 C0 29 0 29 -1.85595703 30.84179688 C-7.5099208 33.89604467 -12.58990042 34.33873163 -18.875 34.3125 C-20.02162109 34.33666992 -20.02162109 34.33666992 -21.19140625 34.36132812 C-26.77010575 34.36606386 -30.91247309 33.31604664 -36 31 C-40.64518394 26.35481606 -42.28718589 21.62228824 -42.3125 15.125 C-42.16834934 8.21424758 -41.21312801 4.26342637 -36.25 -0.8125 C-25.47657431 -8.06384421 -10.67995808 -6.31950182 0 0 Z " fill="#FEFDFC" transform="translate(747,161)"/>
<path d="M0 0 C0.33 9.9 0.66 19.8 1 30 C-8.66915144 35.52522939 -18.98702153 36.93489244 -29.9765625 34.28125 C-34.44553099 32.42789852 -37.4620627 30.2298955 -40 26 C-41.97832565 19.91897217 -41.52401143 12.8296617 -40.375 6.625 C-37.75077422 1.61511442 -34.79091139 -1.29642767 -29.5 -3.375 C-18.44149287 -5.40485982 -10.69641425 -3.88960518 0 0 Z " fill="#FDFDFD" transform="translate(263,160)"/>
<path d="M0 0 C4.62 0 9.24 0 14 0 C14.33 28.71 14.66 57.42 15 87 C15.66 87.33 16.32 87.66 17 88 C17 88.66 17 89.32 17 90 C19.97 90 22.94 90 26 90 C26 91.32 26 92.64 26 94 C17.55526695 94.60081105 10.76377204 95.02991587 3.63671875 89.8984375 C-0.34641337 85.2783845 -0.28318452 79.60889296 -0.22705078 73.79150391 C-0.22734283 72.99083496 -0.22763489 72.19016602 -0.22793579 71.36523438 C-0.22654955 68.73556439 -0.21102179 66.1061826 -0.1953125 63.4765625 C-0.19157986 61.64667923 -0.18873407 59.81679395 -0.18673706 57.98690796 C-0.17912039 53.18319123 -0.15948882 48.37959646 -0.1373291 43.57592773 C-0.11682827 38.66912485 -0.10772629 33.76230216 -0.09765625 28.85546875 C-0.07624104 19.23692574 -0.04212888 9.61847303 0 0 Z " fill="#EB6509" transform="translate(661,105)"/>
<path d="M0 0 C-0.66 1.65 -1.32 3.3 -2 5 C-3.03898438 4.89300781 -4.07796875 4.78601563 -5.1484375 4.67578125 C-14.9331343 3.78412741 -23.20553917 3.43938657 -31.58789062 9.30493164 C-34.89411201 12.19553775 -35.55304247 14.29197921 -35.88647461 18.63818359 C-35.92711309 20.8912413 -35.93026944 23.14518636 -35.90234375 25.3984375 C-35.92078087 27.18358261 -35.92078087 27.18358261 -35.93959045 29.00479126 C-35.97131262 32.79548867 -35.95504313 36.58424187 -35.9375 40.375 C-35.95060909 42.94923683 -35.96684896 45.52345975 -35.98632812 48.09765625 C-36.0271777 54.39885225 -36.02499749 60.69873504 -36 67 C-40.62 67 -45.24 67 -50 67 C-50 44.89 -50 22.78 -50 0 C-42.79999244 1.20000126 -41.01605773 2.98394227 -36 8 C-35.55011719 7.61328125 -35.10023438 7.2265625 -34.63671875 6.828125 C-24.21928595 -1.60602901 -12.75697739 -4.43720953 0 0 Z " fill="#EB660A" transform="translate(824,132)"/>
<path d="M0 0 C6.20503644 4.22369593 10.71561409 9.7661113 13 17 C13 18.32 13 19.64 13 21 C-5.15 21 -23.3 21 -42 21 C-40.98076299 11.82686691 -40.14250456 9.08344202 -34 3 C-23.5012971 -5.29801325 -11.76843133 -6.40835588 0 0 Z " fill="#FBFBFA" transform="translate(447,140)"/>
<path d="M0 0 C4.29 0 8.58 0 13 0 C13 22.11 13 44.22 13 67 C8.71 67 4.42 67 0 67 C0 44.89 0 22.78 0 0 Z " fill="#33251A" transform="translate(291,132)"/>
<path d="M0 0 C3.63 0 7.26 0 11 0 C11.680625 1.4025 12.36125 2.805 13.0625 4.25 C15.63127035 8.80633847 17.91052779 11.50077563 23 13 C29.23054071 14.0587847 34.10562105 13.29650708 39.3046875 9.64453125 C42.20996546 6.82627775 43.48410887 3.7265657 45 0 C48.63 0 52.26 0 56 0 C55.63650665 6.90637369 51.95818584 13.07841027 47.10546875 17.87109375 C40.55857891 23.04920584 33.97506784 25.6355023 25.5859375 25.3515625 C18.38308609 24.37232288 12.02022488 21.24841692 7 16 C3.44309464 11.00359412 0.33053367 6.28013966 0 0 Z " fill="#F8F7F7" transform="translate(404,168)"/>
<path d="M0 0 C1.10865985 0.91122727 2.21172219 1.82926659 3.3125 2.75 C3.92738281 3.26046875 4.54226563 3.7709375 5.17578125 4.296875 C7 6 7 6 10 10 C7.03 12.97 4.06 15.94 1 19 C-7.14088983 12.08792373 -7.14088983 12.08792373 -9 10 C-9 9.34 -9 8.68 -9 8 C-7.28515625 6.30859375 -7.28515625 6.30859375 -5.0625 4.4375 C-3.96615234 3.50744141 -3.96615234 3.50744141 -2.84765625 2.55859375 C-2.23792969 2.04425781 -1.62820313 1.52992187 -1 1 C-0.67 0.67 -0.34 0.34 0 0 Z " fill="#392B20" transform="translate(297,105)"/>
<path d="M0 0 C0.99 0 1.98 0 3 0 C3 19.14 3 38.28 3 58 C2.01 57.34 1.02 56.68 0 56 C-0.36076355 53.6335144 -0.36076355 53.6335144 -0.34057617 50.63232422 C-0.34034958 49.51131317 -0.34012299 48.39030212 -0.33988953 47.23532104 C-0.32440567 46.02071198 -0.30892181 44.80610291 -0.29296875 43.5546875 C-0.28872391 42.31453888 -0.28447906 41.07439026 -0.28010559 39.79666138 C-0.26613216 36.49864537 -0.23917361 33.2010665 -0.20599365 29.90319824 C-0.17531238 26.53838458 -0.16160446 23.17350696 -0.14648438 19.80859375 C-0.1133473 13.20555729 -0.06309697 6.60281442 0 0 Z " fill="#33251A" transform="translate(192,105)"/>
</svg>
